<?xml version="1.0" standalone="no"?>
<!DOCTYPE svg PUBLIC "-//W3C//DTD SVG 20010904//EN"
 "http://www.w3.org/TR/2001/REC-SVG-20010904/DTD/svg10.dtd">
<svg version="1.0" xmlns="http://www.w3.org/2000/svg"
 width="300.000000pt" height="300.000000pt" viewBox="0 0 300.000000 300.000000"
 preserveAspectRatio="xMidYMid meet">
<metadata>
Created by potrace 1.14, written by Peter Selinger 2001-2017
</metadata>
<g transform="translate(0.000000,300.000000) scale(0.100000,-0.100000)"
fill="#000000" stroke="none">
<path d="M243 2986 c-88 -28 -176 -107 -216 -194 l-22 -47 0 -1245 0 -1245 28
-56 c32 -67 109 -142 175 -172 l47 -22 1245 0 1245 0 47 22 c66 30 143 105
175 172 l28 56 0 1245 0 1245 -22 47 c-30 66 -105 143 -172 175 l-56 28 -1230
2 c-992 1 -1238 -1 -1272 -11z m1558 -421 c185 -32 384 -127 478 -229 l24 -26
-37 -82 c-20 -46 -40 -89 -45 -96 -6 -11 -28 1 -91 47 -99 74 -200 124 -306
152 -112 30 -335 30 -447 0 -131 -35 -202 -75 -292 -165 -168 -169 -233 -380
-222 -720 7 -208 26 -298 97 -441 57 -117 113 -185 207 -249 128 -87 277 -122
483 -113 212 10 345 61 511 199 26 21 49 38 51 38 11 0 90 -190 85 -203 -10
-25 -140 -117 -232 -162 -321 -160 -791 -130 -1068 69 -211 151 -344 389 -386
691 -14 96 -14 357 -1 450 58 402 282 693 620 803 154 51 403 67 571 37z"/>
</g>
</svg>
